<svg width="281" height="64" viewBox="0 0 281 64" fill="none" xmlns="http://www.w3.org/2000/svg">
<path d="M96.104 38.96V56H92.816V48.728H85.088V56H81.776V38.96H85.088V45.848H92.816V38.96H96.104ZM105.015 56.24C104.007 56.24 103.095 56.072 102.279 55.736C101.463 55.384 100.767 54.912 100.191 54.32C99.6148 53.728 99.1668 53.04 98.8468 52.256C98.5428 51.472 98.3908 50.648 98.3908 49.784C98.3908 48.888 98.5428 48.048 98.8468 47.264C99.1508 46.464 99.5908 45.768 100.167 45.176C100.743 44.568 101.439 44.088 102.255 43.736C103.087 43.384 104.015 43.208 105.039 43.208C106.063 43.208 106.975 43.384 107.775 43.736C108.591 44.088 109.279 44.56 109.839 45.152C110.415 45.744 110.847 46.432 111.135 47.216C111.439 48 111.591 48.816 111.591 49.664C111.591 49.872 111.583 50.072 111.567 50.264C111.567 50.456 111.551 50.616 111.519 50.744H101.799C101.847 51.24 101.967 51.68 102.159 52.064C102.351 52.448 102.599 52.776 102.903 53.048C103.207 53.32 103.551 53.528 103.935 53.672C104.319 53.816 104.719 53.888 105.135 53.888C105.775 53.888 106.375 53.736 106.935 53.432C107.511 53.112 107.903 52.696 108.111 52.184L110.871 52.952C110.407 53.912 109.663 54.704 108.639 55.328C107.631 55.936 106.423 56.24 105.015 56.24ZM108.279 48.656C108.199 47.712 107.847 46.96 107.223 46.4C106.615 45.824 105.871 45.536 104.991 45.536C104.559 45.536 104.151 45.616 103.767 45.776C103.399 45.92 103.071 46.128 102.783 46.4C102.495 46.672 102.255 47 102.063 47.384C101.887 47.768 101.783 48.192 101.751 48.656H108.279ZM113.526 38.48H116.742V51.968C116.742 52.432 116.854 52.792 117.078 53.048C117.302 53.304 117.622 53.432 118.038 53.432C118.23 53.432 118.438 53.4 118.662 53.336C118.902 53.272 119.126 53.192 119.334 53.096L119.766 55.544C119.334 55.752 118.83 55.912 118.254 56.024C117.678 56.136 117.158 56.192 116.694 56.192C115.686 56.192 114.902 55.928 114.342 55.4C113.798 54.856 113.526 54.088 113.526 53.096V38.48ZM121.143 38.48H124.359V51.968C124.359 52.432 124.471 52.792 124.695 53.048C124.919 53.304 125.239 53.432 125.655 53.432C125.847 53.432 126.055 53.4 126.279 53.336C126.519 53.272 126.743 53.192 126.951 53.096L127.383 55.544C126.951 55.752 126.447 55.912 125.871 56.024C125.295 56.136 124.775 56.192 124.311 56.192C123.303 56.192 122.519 55.928 121.959 55.4C121.415 54.856 121.143 54.088 121.143 53.096V38.48ZM134.592 56.24C133.568 56.24 132.648 56.064 131.832 55.712C131.016 55.36 130.32 54.888 129.744 54.296C129.184 53.688 128.752 52.992 128.448 52.208C128.144 51.424 127.992 50.6 127.992 49.736C127.992 48.856 128.144 48.024 128.448 47.24C128.752 46.456 129.184 45.768 129.744 45.176C130.32 44.568 131.016 44.088 131.832 43.736C132.648 43.384 133.568 43.208 134.592 43.208C135.616 43.208 136.528 43.384 137.328 43.736C138.144 44.088 138.832 44.568 139.392 45.176C139.968 45.768 140.408 46.456 140.712 47.24C141.016 48.024 141.168 48.856 141.168 49.736C141.168 50.6 141.016 51.424 140.712 52.208C140.408 52.992 139.976 53.688 139.416 54.296C138.856 54.888 138.168 55.36 137.352 55.712C136.536 56.064 135.616 56.24 134.592 56.24ZM131.304 49.736C131.304 50.296 131.384 50.808 131.544 51.272C131.72 51.72 131.952 52.112 132.24 52.448C132.544 52.784 132.896 53.048 133.296 53.24C133.696 53.416 134.128 53.504 134.592 53.504C135.056 53.504 135.488 53.416 135.888 53.24C136.288 53.048 136.632 52.784 136.92 52.448C137.224 52.112 137.456 51.712 137.616 51.248C137.792 50.784 137.88 50.272 137.88 49.712C137.88 49.168 137.792 48.664 137.616 48.2C137.456 47.736 137.224 47.336 136.92 47C136.632 46.664 136.288 46.408 135.888 46.232C135.488 46.04 135.056 45.944 134.592 45.944C134.128 45.944 133.696 46.04 133.296 46.232C132.896 46.424 132.544 46.688 132.24 47.024C131.952 47.36 131.72 47.76 131.544 48.224C131.384 48.688 131.304 49.192 131.304 49.736ZM152.003 41.528C153.171 41.528 154.291 41.728 155.363 42.128C156.451 42.528 157.411 43.112 158.243 43.88C159.075 44.648 159.731 45.6 160.211 46.736C160.707 47.872 160.955 49.184 160.955 50.672C160.955 50.896 160.939 51.2 160.907 51.584C160.891 51.952 160.843 52.344 160.763 52.76C160.683 53.176 160.563 53.6 160.403 54.032C160.243 54.464 160.027 54.856 159.755 55.208C159.483 55.56 159.139 55.84 158.723 56.048C158.323 56.272 157.835 56.384 157.259 56.384C156.827 56.384 156.467 56.32 156.179 56.192C155.907 56.08 155.683 55.928 155.507 55.736C155.347 55.544 155.227 55.336 155.147 55.112C155.067 54.872 155.011 54.64 154.979 54.416C154.483 54.912 153.883 55.312 153.179 55.616C152.475 55.904 151.715 56.048 150.899 56.048C149.699 56.048 148.787 55.736 148.163 55.112C147.539 54.488 147.227 53.68 147.227 52.688C147.227 52.032 147.355 51.48 147.611 51.032C147.883 50.584 148.227 50.224 148.643 49.952C149.075 49.68 149.555 49.488 150.083 49.376C150.627 49.248 151.171 49.184 151.715 49.184C152.355 49.184 152.907 49.248 153.371 49.376C153.835 49.488 154.187 49.6 154.427 49.712C154.427 49.28 154.387 48.88 154.307 48.512C154.227 48.144 154.083 47.832 153.875 47.576C153.667 47.32 153.387 47.12 153.035 46.976C152.683 46.832 152.235 46.76 151.691 46.76C151.035 46.76 150.435 46.856 149.891 47.048C149.347 47.24 148.883 47.496 148.499 47.816L147.875 46.112C149.091 45.312 150.467 44.912 152.003 44.912C153.043 44.912 153.851 45.072 154.427 45.392C155.019 45.712 155.451 46.12 155.723 46.616C156.011 47.096 156.187 47.632 156.251 48.224C156.315 48.816 156.347 49.384 156.347 49.928V52.232C156.347 52.584 156.355 52.928 156.371 53.264C156.403 53.584 156.459 53.872 156.539 54.128C156.619 54.368 156.739 54.568 156.899 54.728C157.059 54.872 157.283 54.944 157.571 54.944C158.003 54.944 158.347 54.784 158.603 54.464C158.875 54.144 159.083 53.76 159.227 53.312C159.387 52.848 159.491 52.368 159.539 51.872C159.587 51.376 159.611 50.96 159.611 50.624C159.611 49.504 159.419 48.472 159.035 47.528C158.667 46.568 158.147 45.744 157.475 45.056C156.803 44.352 155.995 43.808 155.051 43.424C154.107 43.024 153.059 42.824 151.907 42.824C150.771 42.824 149.731 43.016 148.787 43.4C147.859 43.784 147.051 44.32 146.363 45.008C145.691 45.68 145.163 46.488 144.779 47.432C144.411 48.36 144.227 49.376 144.227 50.48C144.227 51.552 144.403 52.56 144.755 53.504C145.107 54.432 145.603 55.248 146.243 55.952C146.899 56.64 147.683 57.184 148.595 57.584C149.507 58 150.523 58.208 151.643 58.208C152.411 58.208 153.075 58.12 153.635 57.944C154.195 57.784 154.779 57.568 155.387 57.296L155.771 58.544C155.099 58.864 154.411 59.104 153.707 59.264C153.003 59.424 152.299 59.504 151.595 59.504C150.395 59.504 149.267 59.288 148.211 58.856C147.155 58.424 146.227 57.808 145.427 57.008C144.643 56.224 144.019 55.28 143.555 54.176C143.107 53.056 142.883 51.824 142.883 50.48C142.883 49.056 143.131 47.792 143.627 46.688C144.123 45.568 144.787 44.632 145.619 43.88C146.467 43.112 147.443 42.528 148.547 42.128C149.651 41.728 150.803 41.528 152.003 41.528ZM153.179 53.912C153.611 53.704 153.923 53.448 154.115 53.144C154.307 52.84 154.403 52.504 154.403 52.136V51.224C154.179 51.144 153.827 51.04 153.347 50.912C152.867 50.784 152.323 50.72 151.715 50.72C150.963 50.72 150.347 50.864 149.867 51.152C149.387 51.44 149.147 51.928 149.147 52.616C149.147 53.16 149.315 53.592 149.651 53.912C150.003 54.232 150.483 54.392 151.091 54.392C151.411 54.392 151.763 54.352 152.147 54.272C152.531 54.192 152.875 54.072 153.179 53.912ZM166.692 56L162.06 43.424H165.372L168.564 53.384L171.78 43.424H174.804L170.172 56H166.692ZM176.48 56V43.424H179.696V56H176.48ZM176.48 41.672V38.48H179.696V41.672H176.48ZM187.349 56.24C186.293 56.24 185.261 56.072 184.253 55.736C183.245 55.4 182.381 54.92 181.661 54.296L182.861 52.28C183.629 52.824 184.373 53.24 185.093 53.528C185.829 53.8 186.557 53.936 187.277 53.936C187.917 53.936 188.421 53.816 188.789 53.576C189.157 53.336 189.341 52.992 189.341 52.544C189.341 52.096 189.125 51.768 188.693 51.56C188.261 51.352 187.557 51.112 186.581 50.84C185.765 50.616 185.069 50.4 184.493 50.192C183.917 49.984 183.453 49.752 183.101 49.496C182.749 49.224 182.493 48.92 182.333 48.584C182.173 48.232 182.093 47.816 182.093 47.336C182.093 46.696 182.213 46.12 182.453 45.608C182.709 45.096 183.061 44.664 183.509 44.312C183.957 43.944 184.477 43.664 185.069 43.472C185.677 43.28 186.333 43.184 187.037 43.184C187.981 43.184 188.861 43.32 189.677 43.592C190.509 43.864 191.269 44.304 191.957 44.912L190.661 46.856C190.021 46.376 189.397 46.024 188.789 45.8C188.197 45.576 187.605 45.464 187.013 45.464C186.469 45.464 186.013 45.576 185.645 45.8C185.277 46.024 185.093 46.384 185.093 46.88C185.093 47.104 185.133 47.288 185.213 47.432C185.309 47.576 185.453 47.704 185.645 47.816C185.837 47.928 186.085 48.04 186.389 48.152C186.709 48.248 187.101 48.352 187.565 48.464C188.429 48.688 189.165 48.912 189.773 49.136C190.397 49.36 190.901 49.616 191.285 49.904C191.685 50.192 191.973 50.528 192.149 50.912C192.341 51.28 192.437 51.728 192.437 52.256C192.437 53.488 191.981 54.464 191.069 55.184C190.157 55.888 188.917 56.24 187.349 56.24ZM197.959 56.24C197.351 56.24 196.783 56.144 196.255 55.952C195.727 55.744 195.271 55.464 194.887 55.112C194.503 54.744 194.199 54.32 193.975 53.84C193.767 53.36 193.663 52.832 193.663 52.256C193.663 51.664 193.791 51.12 194.047 50.624C194.319 50.112 194.687 49.68 195.151 49.328C195.631 48.976 196.199 48.704 196.855 48.512C197.511 48.304 198.231 48.2 199.015 48.2C199.575 48.2 200.119 48.248 200.647 48.344C201.191 48.44 201.671 48.576 202.087 48.752V48.032C202.087 47.2 201.847 46.56 201.367 46.112C200.903 45.664 200.207 45.44 199.279 45.44C198.607 45.44 197.951 45.56 197.311 45.8C196.671 46.04 196.015 46.392 195.343 46.856L194.359 44.816C195.975 43.744 197.719 43.208 199.591 43.208C201.399 43.208 202.799 43.656 203.791 44.552C204.799 45.432 205.303 46.712 205.303 48.392V52.304C205.303 52.64 205.359 52.88 205.471 53.024C205.599 53.168 205.799 53.248 206.071 53.264V56C205.527 56.112 205.055 56.168 204.655 56.168C204.047 56.168 203.575 56.032 203.239 55.76C202.919 55.488 202.719 55.128 202.639 54.68L202.567 53.984C202.007 54.72 201.327 55.28 200.527 55.664C199.727 56.048 198.871 56.24 197.959 56.24ZM198.871 53.888C199.415 53.888 199.927 53.792 200.407 53.6C200.903 53.408 201.287 53.152 201.559 52.832C201.911 52.56 202.087 52.256 202.087 51.92V50.48C201.703 50.336 201.287 50.224 200.839 50.144C200.391 50.048 199.959 50 199.543 50C198.711 50 198.031 50.192 197.503 50.576C196.975 50.944 196.711 51.416 196.711 51.992C196.711 52.536 196.919 52.992 197.335 53.36C197.751 53.712 198.263 53.888 198.871 53.888ZM215.844 56.24C214.852 56.24 213.988 56.024 213.252 55.592C212.516 55.144 211.94 54.544 211.524 53.792V61.112H208.308V43.424H211.116V45.584C211.58 44.848 212.18 44.272 212.916 43.856C213.652 43.424 214.5 43.208 215.46 43.208C216.308 43.208 217.092 43.384 217.812 43.736C218.532 44.072 219.148 44.536 219.66 45.128C220.188 45.704 220.596 46.392 220.884 47.192C221.188 47.976 221.34 48.808 221.34 49.688C221.34 50.6 221.204 51.456 220.932 52.256C220.66 53.056 220.276 53.752 219.78 54.344C219.3 54.936 218.724 55.4 218.052 55.736C217.38 56.072 216.644 56.24 215.844 56.24ZM214.764 53.504C215.244 53.504 215.684 53.4 216.084 53.192C216.5 52.984 216.852 52.704 217.14 52.352C217.428 52 217.652 51.592 217.812 51.128C217.972 50.664 218.052 50.184 218.052 49.688C218.052 49.16 217.964 48.672 217.788 48.224C217.612 47.76 217.364 47.36 217.044 47.024C216.74 46.688 216.372 46.424 215.94 46.232C215.524 46.04 215.068 45.944 214.572 45.944C214.268 45.944 213.956 46 213.636 46.112C213.316 46.208 213.02 46.352 212.748 46.544C212.476 46.736 212.228 46.96 212.004 47.216C211.796 47.472 211.636 47.752 211.524 48.056V51.008C211.812 51.728 212.252 52.328 212.844 52.808C213.436 53.272 214.076 53.504 214.764 53.504ZM231.007 46.208C230.031 46.224 229.159 46.416 228.391 46.784C227.623 47.136 227.071 47.672 226.735 48.392V56H223.519V43.424H226.471V46.112C226.695 45.68 226.959 45.296 227.263 44.96C227.567 44.608 227.895 44.304 228.247 44.048C228.599 43.792 228.951 43.6 229.303 43.472C229.671 43.328 230.023 43.256 230.359 43.256C230.535 43.256 230.663 43.256 230.743 43.256C230.839 43.256 230.927 43.264 231.007 43.28V46.208ZM237.975 56.24C236.951 56.24 236.031 56.064 235.215 55.712C234.399 55.36 233.703 54.888 233.127 54.296C232.567 53.688 232.135 52.992 231.831 52.208C231.527 51.424 231.375 50.6 231.375 49.736C231.375 48.856 231.527 48.024 231.831 47.24C232.135 46.456 232.567 45.768 233.127 45.176C233.703 44.568 234.399 44.088 235.215 43.736C236.031 43.384 236.951 43.208 237.975 43.208C238.999 43.208 239.911 43.384 240.711 43.736C241.527 44.088 242.215 44.568 242.775 45.176C243.351 45.768 243.791 46.456 244.095 47.24C244.399 48.024 244.551 48.856 244.551 49.736C244.551 50.6 244.399 51.424 244.095 52.208C243.791 52.992 243.359 53.688 242.799 54.296C242.239 54.888 241.551 55.36 240.735 55.712C239.919 56.064 238.999 56.24 237.975 56.24ZM234.687 49.736C234.687 50.296 234.767 50.808 234.927 51.272C235.103 51.72 235.335 52.112 235.623 52.448C235.927 52.784 236.279 53.048 236.679 53.24C237.079 53.416 237.511 53.504 237.975 53.504C238.439 53.504 238.871 53.416 239.271 53.24C239.671 53.048 240.015 52.784 240.303 52.448C240.607 52.112 240.839 51.712 240.999 51.248C241.175 50.784 241.263 50.272 241.263 49.712C241.263 49.168 241.175 48.664 240.999 48.2C240.839 47.736 240.607 47.336 240.303 47C240.015 46.664 239.671 46.408 239.271 46.232C238.871 46.04 238.439 45.944 237.975 45.944C237.511 45.944 237.079 46.04 236.679 46.232C236.279 46.424 235.927 46.688 235.623 47.024C235.335 47.36 235.103 47.76 234.927 48.224C234.767 48.688 234.687 49.192 234.687 49.736ZM246.65 56V52.544H249.29V56H246.65ZM263.8 56H260.584V48.944C260.584 47.936 260.408 47.2 260.056 46.736C259.704 46.272 259.216 46.04 258.592 46.04C258.272 46.04 257.944 46.104 257.608 46.232C257.272 46.36 256.952 46.544 256.648 46.784C256.36 47.008 256.096 47.28 255.856 47.6C255.616 47.92 255.44 48.272 255.328 48.656V56H252.112V43.424H255.016V45.752C255.48 44.952 256.152 44.328 257.032 43.88C257.912 43.432 258.904 43.208 260.008 43.208C260.792 43.208 261.432 43.352 261.928 43.64C262.424 43.928 262.808 44.304 263.08 44.768C263.352 45.232 263.536 45.76 263.632 46.352C263.744 46.944 263.8 47.544 263.8 48.152V56ZM271.517 56.072C270.669 56.072 269.901 55.904 269.213 55.568C268.525 55.232 267.925 54.776 267.413 54.2C266.917 53.608 266.533 52.928 266.261 52.16C265.989 51.392 265.853 50.576 265.853 49.712C265.853 48.8 265.997 47.952 266.285 47.168C266.573 46.384 266.973 45.696 267.485 45.104C267.997 44.512 268.613 44.048 269.333 43.712C270.053 43.376 270.845 43.208 271.709 43.208C272.685 43.208 273.541 43.432 274.277 43.88C275.013 44.312 275.621 44.896 276.101 45.632V43.424H278.909V55.4C278.909 56.328 278.733 57.16 278.381 57.896C278.029 58.632 277.541 59.256 276.917 59.768C276.309 60.28 275.573 60.672 274.709 60.944C273.861 61.216 272.933 61.352 271.925 61.352C270.549 61.352 269.389 61.12 268.445 60.656C267.517 60.208 266.717 59.568 266.045 58.736L267.797 57.032C268.277 57.624 268.877 58.088 269.597 58.424C270.333 58.76 271.109 58.928 271.925 58.928C272.421 58.928 272.893 58.856 273.341 58.712C273.805 58.584 274.213 58.376 274.565 58.088C274.917 57.8 275.189 57.432 275.381 56.984C275.589 56.536 275.693 56.008 275.693 55.4V53.816C275.277 54.536 274.693 55.096 273.941 55.496C273.189 55.88 272.381 56.072 271.517 56.072ZM272.597 53.504C272.949 53.504 273.285 53.448 273.605 53.336C273.925 53.224 274.221 53.072 274.493 52.88C274.765 52.688 275.005 52.464 275.213 52.208C275.421 51.952 275.581 51.68 275.693 51.392V48.392C275.405 47.656 274.949 47.064 274.325 46.616C273.717 46.168 273.077 45.944 272.405 45.944C271.909 45.944 271.461 46.056 271.061 46.28C270.661 46.488 270.317 46.776 270.029 47.144C269.741 47.496 269.517 47.904 269.357 48.368C269.213 48.832 269.141 49.312 269.141 49.808C269.141 50.32 269.229 50.8 269.405 51.248C269.581 51.696 269.821 52.088 270.125 52.424C270.445 52.76 270.813 53.024 271.229 53.216C271.645 53.408 272.101 53.504 272.597 53.504Z" fill="#333333"/>
<path d="M87.75 11.7422H82.8203V15.7734H88.5469V17H81.3203V5.625H88.4688V6.85938H82.8203V10.5156H87.75V11.7422ZM91.5469 8.54688L91.5859 9.48438C92.2057 8.75521 93.0417 8.39062 94.0938 8.39062C95.276 8.39062 96.0807 8.84375 96.5078 9.75C96.7891 9.34375 97.1536 9.01562 97.6016 8.76562C98.0547 8.51562 98.5885 8.39062 99.2031 8.39062C101.057 8.39062 102 9.3724 102.031 11.3359V17H100.586V11.4219C100.586 10.8177 100.448 10.3672 100.172 10.0703C99.8958 9.76823 99.4323 9.61719 98.7812 9.61719C98.2448 9.61719 97.7995 9.77865 97.4453 10.1016C97.0911 10.4193 96.8854 10.849 96.8281 11.3906V17H95.375V11.4609C95.375 10.2318 94.7734 9.61719 93.5703 9.61719C92.6224 9.61719 91.974 10.0208 91.625 10.8281V17H90.1797V8.54688H91.5469ZM109.438 17C109.354 16.8333 109.286 16.5365 109.234 16.1094C108.562 16.8073 107.76 17.1562 106.828 17.1562C105.995 17.1562 105.31 16.9219 104.773 16.4531C104.242 15.9792 103.977 15.3802 103.977 14.6562C103.977 13.776 104.31 13.0938 104.977 12.6094C105.648 12.1198 106.591 11.875 107.805 11.875H109.211V11.2109C109.211 10.7057 109.06 10.3047 108.758 10.0078C108.456 9.70573 108.01 9.55469 107.422 9.55469C106.906 9.55469 106.474 9.6849 106.125 9.94531C105.776 10.2057 105.602 10.5208 105.602 10.8906H104.148C104.148 10.4688 104.297 10.0625 104.594 9.67188C104.896 9.27604 105.302 8.96354 105.812 8.73438C106.328 8.50521 106.893 8.39062 107.508 8.39062C108.482 8.39062 109.245 8.63542 109.797 9.125C110.349 9.60938 110.635 10.2786 110.656 11.1328V15.0234C110.656 15.7995 110.755 16.4167 110.953 16.875V17H109.438ZM107.039 15.8984C107.492 15.8984 107.922 15.7812 108.328 15.5469C108.734 15.3125 109.029 15.0078 109.211 14.6328V12.8984H108.078C106.307 12.8984 105.422 13.4167 105.422 14.4531C105.422 14.9062 105.573 15.2604 105.875 15.5156C106.177 15.7708 106.565 15.8984 107.039 15.8984ZM114.492 17H113.047V8.54688H114.492V17ZM112.93 6.30469C112.93 6.07031 113 5.8724 113.141 5.71094C113.286 5.54948 113.5 5.46875 113.781 5.46875C114.062 5.46875 114.276 5.54948 114.422 5.71094C114.568 5.8724 114.641 6.07031 114.641 6.30469C114.641 6.53906 114.568 6.73438 114.422 6.89062C114.276 7.04688 114.062 7.125 113.781 7.125C113.5 7.125 113.286 7.04688 113.141 6.89062C113 6.73438 112.93 6.53906 112.93 6.30469ZM118.383 17H116.938V5H118.383V17Z" fill="#666666"/>
<rect width="64" height="64" rx="8" fill="#20313B"/>
<path fill-rule="evenodd" clip-rule="evenodd" d="M42 26C42 24.9 41.1 24 40 24H24C22.9 24 22 24.9 22 26V38C22 39.1 22.9 40 24 40H40C41.1 40 42 39.1 42 38V26ZM40 26L32 31L24 26H40ZM40 38H24V28L32 33L40 28V38Z" fill="white"/>
</svg>
