<svg width="325" height="64" viewBox="0 0 325 64" fill="none" xmlns="http://www.w3.org/2000/svg">
<path d="M81.776 56V38.96H85.088V53.096H93.776V56H81.776ZM100.796 56.24C99.788 56.24 98.876 56.072 98.06 55.736C97.244 55.384 96.548 54.912 95.972 54.32C95.396 53.728 94.948 53.04 94.628 52.256C94.324 51.472 94.172 50.648 94.172 49.784C94.172 48.888 94.324 48.048 94.628 47.264C94.932 46.464 95.372 45.768 95.948 45.176C96.524 44.568 97.22 44.088 98.036 43.736C98.868 43.384 99.796 43.208 100.82 43.208C101.844 43.208 102.756 43.384 103.556 43.736C104.372 44.088 105.06 44.56 105.62 45.152C106.196 45.744 106.628 46.432 106.916 47.216C107.22 48 107.372 48.816 107.372 49.664C107.372 49.872 107.364 50.072 107.348 50.264C107.348 50.456 107.332 50.616 107.3 50.744H97.58C97.628 51.24 97.748 51.68 97.94 52.064C98.132 52.448 98.38 52.776 98.684 53.048C98.988 53.32 99.332 53.528 99.716 53.672C100.1 53.816 100.5 53.888 100.916 53.888C101.556 53.888 102.156 53.736 102.716 53.432C103.292 53.112 103.684 52.696 103.892 52.184L106.652 52.952C106.188 53.912 105.444 54.704 104.42 55.328C103.412 55.936 102.204 56.24 100.796 56.24ZM104.06 48.656C103.98 47.712 103.628 46.96 103.004 46.4C102.396 45.824 101.652 45.536 100.772 45.536C100.34 45.536 99.932 45.616 99.548 45.776C99.18 45.92 98.852 46.128 98.564 46.4C98.276 46.672 98.036 47 97.844 47.384C97.668 47.768 97.564 48.192 97.532 48.656H104.06ZM117.923 56L114.275 50.552L112.547 52.256V56H109.331V38.48H112.547V49.112L117.587 43.448H121.019L116.339 48.776L121.355 56H117.923ZM131.306 56L127.658 50.552L125.93 52.256V56H122.714V38.48H125.93V49.112L130.97 43.448H134.402L129.722 48.776L134.738 56H131.306ZM136.097 56V43.424H139.313V56H136.097ZM136.097 41.672V38.48H139.313V41.672H136.097ZM148.292 56V38.96H155.516C156.3 38.96 157.02 39.128 157.676 39.464C158.348 39.784 158.924 40.216 159.404 40.76C159.884 41.288 160.26 41.896 160.532 42.584C160.804 43.256 160.94 43.936 160.94 44.624C160.94 45.344 160.812 46.048 160.556 46.736C160.3 47.408 159.94 48.008 159.476 48.536C159.012 49.064 158.452 49.488 157.796 49.808C157.14 50.128 156.42 50.288 155.636 50.288H151.604V56H148.292ZM151.604 47.384H155.444C156.052 47.384 156.556 47.136 156.956 46.64C157.372 46.144 157.58 45.472 157.58 44.624C157.58 44.192 157.516 43.808 157.388 43.472C157.26 43.12 157.092 42.824 156.884 42.584C156.676 42.344 156.428 42.168 156.14 42.056C155.868 41.928 155.588 41.864 155.3 41.864H151.604V47.384ZM174.621 56H171.405V48.944C171.405 47.952 171.221 47.224 170.853 46.76C170.485 46.28 169.965 46.04 169.293 46.04C169.005 46.04 168.701 46.104 168.381 46.232C168.061 46.36 167.757 46.544 167.469 46.784C167.181 47.008 166.917 47.28 166.677 47.6C166.437 47.92 166.261 48.272 166.149 48.656V56H162.933V38.48H166.149V45.752C166.613 44.936 167.237 44.312 168.021 43.88C168.821 43.432 169.701 43.208 170.661 43.208C171.477 43.208 172.141 43.352 172.653 43.64C173.165 43.912 173.565 44.28 173.853 44.744C174.141 45.208 174.341 45.736 174.453 46.328C174.565 46.92 174.621 47.528 174.621 48.152V56ZM180.849 56.24C180.241 56.24 179.673 56.144 179.145 55.952C178.617 55.744 178.161 55.464 177.777 55.112C177.393 54.744 177.089 54.32 176.865 53.84C176.657 53.36 176.553 52.832 176.553 52.256C176.553 51.664 176.681 51.12 176.937 50.624C177.209 50.112 177.577 49.68 178.041 49.328C178.521 48.976 179.089 48.704 179.745 48.512C180.401 48.304 181.121 48.2 181.905 48.2C182.465 48.2 183.009 48.248 183.537 48.344C184.081 48.44 184.561 48.576 184.977 48.752V48.032C184.977 47.2 184.737 46.56 184.257 46.112C183.793 45.664 183.097 45.44 182.169 45.44C181.497 45.44 180.841 45.56 180.201 45.8C179.561 46.04 178.905 46.392 178.233 46.856L177.249 44.816C178.865 43.744 180.609 43.208 182.481 43.208C184.289 43.208 185.689 43.656 186.681 44.552C187.689 45.432 188.193 46.712 188.193 48.392V52.304C188.193 52.64 188.249 52.88 188.361 53.024C188.489 53.168 188.689 53.248 188.961 53.264V56C188.417 56.112 187.945 56.168 187.545 56.168C186.937 56.168 186.465 56.032 186.129 55.76C185.809 55.488 185.609 55.128 185.529 54.68L185.457 53.984C184.897 54.72 184.217 55.28 183.417 55.664C182.617 56.048 181.761 56.24 180.849 56.24ZM181.761 53.888C182.305 53.888 182.817 53.792 183.297 53.6C183.793 53.408 184.177 53.152 184.449 52.832C184.801 52.56 184.977 52.256 184.977 51.92V50.48C184.593 50.336 184.177 50.224 183.729 50.144C183.281 50.048 182.849 50 182.433 50C181.601 50 180.921 50.192 180.393 50.576C179.865 50.944 179.601 51.416 179.601 51.992C179.601 52.536 179.809 52.992 180.225 53.36C180.641 53.712 181.153 53.888 181.761 53.888ZM195.95 56.24C194.894 56.24 193.862 56.072 192.854 55.736C191.846 55.4 190.982 54.92 190.262 54.296L191.462 52.28C192.23 52.824 192.974 53.24 193.694 53.528C194.43 53.8 195.158 53.936 195.878 53.936C196.518 53.936 197.022 53.816 197.39 53.576C197.758 53.336 197.942 52.992 197.942 52.544C197.942 52.096 197.726 51.768 197.294 51.56C196.862 51.352 196.158 51.112 195.182 50.84C194.366 50.616 193.67 50.4 193.094 50.192C192.518 49.984 192.054 49.752 191.702 49.496C191.35 49.224 191.094 48.92 190.934 48.584C190.774 48.232 190.694 47.816 190.694 47.336C190.694 46.696 190.814 46.12 191.054 45.608C191.31 45.096 191.662 44.664 192.11 44.312C192.558 43.944 193.078 43.664 193.67 43.472C194.278 43.28 194.934 43.184 195.638 43.184C196.582 43.184 197.462 43.32 198.278 43.592C199.11 43.864 199.87 44.304 200.558 44.912L199.262 46.856C198.622 46.376 197.998 46.024 197.39 45.8C196.798 45.576 196.206 45.464 195.614 45.464C195.07 45.464 194.614 45.576 194.246 45.8C193.878 46.024 193.694 46.384 193.694 46.88C193.694 47.104 193.734 47.288 193.814 47.432C193.91 47.576 194.054 47.704 194.246 47.816C194.438 47.928 194.686 48.04 194.99 48.152C195.31 48.248 195.702 48.352 196.166 48.464C197.03 48.688 197.766 48.912 198.374 49.136C198.998 49.36 199.502 49.616 199.886 49.904C200.286 50.192 200.574 50.528 200.75 50.912C200.942 51.28 201.038 51.728 201.038 52.256C201.038 53.488 200.582 54.464 199.67 55.184C198.758 55.888 197.518 56.24 195.95 56.24ZM208.96 56.24C207.952 56.24 207.04 56.072 206.224 55.736C205.408 55.384 204.712 54.912 204.136 54.32C203.56 53.728 203.112 53.04 202.792 52.256C202.488 51.472 202.336 50.648 202.336 49.784C202.336 48.888 202.488 48.048 202.792 47.264C203.096 46.464 203.536 45.768 204.112 45.176C204.688 44.568 205.384 44.088 206.2 43.736C207.032 43.384 207.96 43.208 208.984 43.208C210.008 43.208 210.92 43.384 211.72 43.736C212.536 44.088 213.224 44.56 213.784 45.152C214.36 45.744 214.792 46.432 215.08 47.216C215.384 48 215.536 48.816 215.536 49.664C215.536 49.872 215.528 50.072 215.512 50.264C215.512 50.456 215.496 50.616 215.464 50.744H205.744C205.792 51.24 205.912 51.68 206.104 52.064C206.296 52.448 206.544 52.776 206.848 53.048C207.152 53.32 207.496 53.528 207.88 53.672C208.264 53.816 208.664 53.888 209.08 53.888C209.72 53.888 210.32 53.736 210.88 53.432C211.456 53.112 211.848 52.696 212.056 52.184L214.816 52.952C214.352 53.912 213.608 54.704 212.584 55.328C211.576 55.936 210.368 56.24 208.96 56.24ZM212.224 48.656C212.144 47.712 211.792 46.96 211.168 46.4C210.56 45.824 209.816 45.536 208.936 45.536C208.504 45.536 208.096 45.616 207.712 45.776C207.344 45.92 207.016 46.128 206.728 46.4C206.44 46.672 206.2 47 206.008 47.384C205.832 47.768 205.728 48.192 205.696 48.656H212.224ZM233.029 53.096V56H223.381V53.096H226.693V42.008C226.565 42.2 226.349 42.416 226.045 42.656C225.757 42.88 225.421 43.104 225.037 43.328C224.669 43.536 224.285 43.712 223.885 43.856C223.501 44 223.149 44.072 222.829 44.072V41.096C223.261 41.096 223.701 40.984 224.149 40.76C224.597 40.52 225.005 40.264 225.373 39.992C225.757 39.704 226.069 39.44 226.309 39.2C226.549 38.96 226.677 38.824 226.693 38.792H229.981V53.096H233.029ZM240.72 50.864V47.96H247.992V50.864H240.72ZM256.901 56V38.96H260.213V53.096H268.901V56H256.901ZM274.037 56.24C273.429 56.24 272.861 56.144 272.333 55.952C271.805 55.744 271.349 55.464 270.965 55.112C270.581 54.744 270.277 54.32 270.053 53.84C269.845 53.36 269.741 52.832 269.741 52.256C269.741 51.664 269.869 51.12 270.125 50.624C270.397 50.112 270.765 49.68 271.229 49.328C271.709 48.976 272.277 48.704 272.933 48.512C273.589 48.304 274.309 48.2 275.093 48.2C275.653 48.2 276.197 48.248 276.725 48.344C277.269 48.44 277.749 48.576 278.165 48.752V48.032C278.165 47.2 277.925 46.56 277.445 46.112C276.981 45.664 276.285 45.44 275.357 45.44C274.685 45.44 274.029 45.56 273.389 45.8C272.749 46.04 272.093 46.392 271.421 46.856L270.437 44.816C272.053 43.744 273.797 43.208 275.669 43.208C277.477 43.208 278.877 43.656 279.869 44.552C280.877 45.432 281.381 46.712 281.381 48.392V52.304C281.381 52.64 281.437 52.88 281.549 53.024C281.677 53.168 281.877 53.248 282.149 53.264V56C281.605 56.112 281.133 56.168 280.733 56.168C280.125 56.168 279.653 56.032 279.317 55.76C278.997 55.488 278.797 55.128 278.717 54.68L278.645 53.984C278.085 54.72 277.405 55.28 276.605 55.664C275.805 56.048 274.949 56.24 274.037 56.24ZM274.949 53.888C275.493 53.888 276.005 53.792 276.485 53.6C276.981 53.408 277.365 53.152 277.637 52.832C277.989 52.56 278.165 52.256 278.165 51.92V50.48C277.781 50.336 277.365 50.224 276.917 50.144C276.469 50.048 276.037 50 275.621 50C274.789 50 274.109 50.192 273.581 50.576C273.053 50.944 272.789 51.416 272.789 51.992C272.789 52.536 272.997 52.992 273.413 53.36C273.829 53.712 274.341 53.888 274.949 53.888ZM289.306 56.072C288.458 56.072 287.69 55.904 287.002 55.568C286.314 55.232 285.714 54.776 285.202 54.2C284.706 53.608 284.322 52.928 284.05 52.16C283.778 51.392 283.642 50.576 283.642 49.712C283.642 48.8 283.786 47.952 284.074 47.168C284.362 46.384 284.762 45.696 285.274 45.104C285.786 44.512 286.402 44.048 287.122 43.712C287.842 43.376 288.634 43.208 289.498 43.208C290.474 43.208 291.33 43.432 292.066 43.88C292.802 44.312 293.41 44.896 293.89 45.632V43.424H296.698V55.4C296.698 56.328 296.522 57.16 296.17 57.896C295.818 58.632 295.33 59.256 294.706 59.768C294.098 60.28 293.362 60.672 292.498 60.944C291.65 61.216 290.722 61.352 289.714 61.352C288.338 61.352 287.178 61.12 286.234 60.656C285.306 60.208 284.506 59.568 283.834 58.736L285.586 57.032C286.066 57.624 286.666 58.088 287.386 58.424C288.122 58.76 288.898 58.928 289.714 58.928C290.21 58.928 290.682 58.856 291.13 58.712C291.594 58.584 292.002 58.376 292.354 58.088C292.706 57.8 292.978 57.432 293.17 56.984C293.378 56.536 293.482 56.008 293.482 55.4V53.816C293.066 54.536 292.482 55.096 291.73 55.496C290.978 55.88 290.17 56.072 289.306 56.072ZM290.386 53.504C290.738 53.504 291.074 53.448 291.394 53.336C291.714 53.224 292.01 53.072 292.282 52.88C292.554 52.688 292.794 52.464 293.002 52.208C293.21 51.952 293.37 51.68 293.482 51.392V48.392C293.194 47.656 292.738 47.064 292.114 46.616C291.506 46.168 290.866 45.944 290.194 45.944C289.698 45.944 289.25 46.056 288.85 46.28C288.45 46.488 288.106 46.776 287.818 47.144C287.53 47.496 287.306 47.904 287.146 48.368C287.002 48.832 286.93 49.312 286.93 49.808C286.93 50.32 287.018 50.8 287.194 51.248C287.37 51.696 287.61 52.088 287.914 52.424C288.234 52.76 288.602 53.024 289.018 53.216C289.434 53.408 289.89 53.504 290.386 53.504ZM305.405 56.24C304.381 56.24 303.461 56.064 302.645 55.712C301.829 55.36 301.133 54.888 300.557 54.296C299.997 53.688 299.565 52.992 299.261 52.208C298.957 51.424 298.805 50.6 298.805 49.736C298.805 48.856 298.957 48.024 299.261 47.24C299.565 46.456 299.997 45.768 300.557 45.176C301.133 44.568 301.829 44.088 302.645 43.736C303.461 43.384 304.381 43.208 305.405 43.208C306.429 43.208 307.341 43.384 308.141 43.736C308.957 44.088 309.645 44.568 310.205 45.176C310.781 45.768 311.221 46.456 311.525 47.24C311.829 48.024 311.981 48.856 311.981 49.736C311.981 50.6 311.829 51.424 311.525 52.208C311.221 52.992 310.789 53.688 310.229 54.296C309.669 54.888 308.981 55.36 308.165 55.712C307.349 56.064 306.429 56.24 305.405 56.24ZM302.117 49.736C302.117 50.296 302.197 50.808 302.357 51.272C302.533 51.72 302.765 52.112 303.053 52.448C303.357 52.784 303.709 53.048 304.109 53.24C304.509 53.416 304.941 53.504 305.405 53.504C305.869 53.504 306.301 53.416 306.701 53.24C307.101 53.048 307.445 52.784 307.733 52.448C308.037 52.112 308.269 51.712 308.429 51.248C308.605 50.784 308.693 50.272 308.693 49.712C308.693 49.168 308.605 48.664 308.429 48.2C308.269 47.736 308.037 47.336 307.733 47C307.445 46.664 307.101 46.408 306.701 46.232C306.301 46.04 305.869 45.944 305.405 45.944C304.941 45.944 304.509 46.04 304.109 46.232C303.709 46.424 303.357 46.688 303.053 47.024C302.765 47.36 302.533 47.76 302.357 48.224C302.197 48.688 302.117 49.192 302.117 49.736ZM318.904 56.24C317.848 56.24 316.816 56.072 315.808 55.736C314.8 55.4 313.936 54.92 313.216 54.296L314.416 52.28C315.184 52.824 315.928 53.24 316.648 53.528C317.384 53.8 318.112 53.936 318.832 53.936C319.472 53.936 319.976 53.816 320.344 53.576C320.712 53.336 320.896 52.992 320.896 52.544C320.896 52.096 320.68 51.768 320.248 51.56C319.816 51.352 319.112 51.112 318.136 50.84C317.32 50.616 316.624 50.4 316.048 50.192C315.472 49.984 315.008 49.752 314.656 49.496C314.304 49.224 314.048 48.92 313.888 48.584C313.728 48.232 313.648 47.816 313.648 47.336C313.648 46.696 313.768 46.12 314.008 45.608C314.264 45.096 314.616 44.664 315.064 44.312C315.512 43.944 316.032 43.664 316.624 43.472C317.232 43.28 317.888 43.184 318.592 43.184C319.536 43.184 320.416 43.32 321.232 43.592C322.064 43.864 322.824 44.304 323.512 44.912L322.216 46.856C321.576 46.376 320.952 46.024 320.344 45.8C319.752 45.576 319.16 45.464 318.568 45.464C318.024 45.464 317.568 45.576 317.2 45.8C316.832 46.024 316.648 46.384 316.648 46.88C316.648 47.104 316.688 47.288 316.768 47.432C316.864 47.576 317.008 47.704 317.2 47.816C317.392 47.928 317.64 48.04 317.944 48.152C318.264 48.248 318.656 48.352 319.12 48.464C319.984 48.688 320.72 48.912 321.328 49.136C321.952 49.36 322.456 49.616 322.84 49.904C323.24 50.192 323.528 50.528 323.704 50.912C323.896 51.28 323.992 51.728 323.992 52.256C323.992 53.488 323.536 54.464 322.624 55.184C321.712 55.888 320.472 56.24 318.904 56.24Z" fill="#333333"/>
<path d="M83.2578 5.625L86.9766 14.9062L90.6953 5.625H92.6406V17H91.1406V12.5703L91.2812 7.78906L87.5469 17H86.3984L82.6719 7.8125L82.8203 12.5703V17H81.3203V5.625H83.2578ZM100.281 17C100.198 16.8333 100.13 16.5365 100.078 16.1094C99.4062 16.8073 98.6042 17.1562 97.6719 17.1562C96.8385 17.1562 96.1536 16.9219 95.6172 16.4531C95.0859 15.9792 94.8203 15.3802 94.8203 14.6562C94.8203 13.776 95.1536 13.0938 95.8203 12.6094C96.4922 12.1198 97.4349 11.875 98.6484 11.875H100.055V11.2109C100.055 10.7057 99.9036 10.3047 99.6016 10.0078C99.2995 9.70573 98.8542 9.55469 98.2656 9.55469C97.75 9.55469 97.3177 9.6849 96.9688 9.94531C96.6198 10.2057 96.4453 10.5208 96.4453 10.8906H94.9922C94.9922 10.4688 95.1406 10.0625 95.4375 9.67188C95.7396 9.27604 96.1458 8.96354 96.6562 8.73438C97.1719 8.50521 97.737 8.39062 98.3516 8.39062C99.3255 8.39062 100.089 8.63542 100.641 9.125C101.193 9.60938 101.479 10.2786 101.5 11.1328V15.0234C101.5 15.7995 101.599 16.4167 101.797 16.875V17H100.281ZM97.8828 15.8984C98.3359 15.8984 98.7656 15.7812 99.1719 15.5469C99.5781 15.3125 99.8724 15.0078 100.055 14.6328V12.8984H98.9219C97.151 12.8984 96.2656 13.4167 96.2656 14.4531C96.2656 14.9062 96.4167 15.2604 96.7188 15.5156C97.0208 15.7708 97.4089 15.8984 97.8828 15.8984ZM110.906 12.8672C110.906 14.1536 110.612 15.1901 110.023 15.9766C109.435 16.763 108.638 17.1562 107.633 17.1562C106.607 17.1562 105.799 16.8307 105.211 16.1797V20.25H103.766V8.54688H105.086L105.156 9.48438C105.745 8.75521 106.562 8.39062 107.609 8.39062C108.625 8.39062 109.427 8.77344 110.016 9.53906C110.609 10.3047 110.906 11.3698 110.906 12.7344V12.8672ZM109.461 12.7031C109.461 11.75 109.258 10.9974 108.852 10.4453C108.445 9.89323 107.888 9.61719 107.18 9.61719C106.305 9.61719 105.648 10.0052 105.211 10.7812V14.8203C105.643 15.5911 106.305 15.9766 107.195 15.9766C107.888 15.9766 108.438 15.7031 108.844 15.1562C109.255 14.6042 109.461 13.7865 109.461 12.7031ZM120.297 11.9297C119.01 11.5599 118.073 11.1068 117.484 10.5703C116.901 10.0286 116.609 9.36198 116.609 8.57031C116.609 7.67448 116.966 6.9349 117.68 6.35156C118.398 5.76302 119.331 5.46875 120.477 5.46875C121.258 5.46875 121.953 5.61979 122.562 5.92188C123.177 6.22396 123.651 6.64062 123.984 7.17188C124.323 7.70312 124.492 8.28385 124.492 8.91406H122.984C122.984 8.22656 122.766 7.6875 122.328 7.29688C121.891 6.90104 121.273 6.70312 120.477 6.70312C119.737 6.70312 119.159 6.86719 118.742 7.19531C118.331 7.51823 118.125 7.96875 118.125 8.54688C118.125 9.01042 118.32 9.40365 118.711 9.72656C119.107 10.0443 119.776 10.3359 120.719 10.6016C121.667 10.8672 122.406 11.1615 122.938 11.4844C123.474 11.8021 123.87 12.1745 124.125 12.6016C124.385 13.0286 124.516 13.5312 124.516 14.1094C124.516 15.0312 124.156 15.7708 123.438 16.3281C122.719 16.8802 121.758 17.1562 120.555 17.1562C119.773 17.1562 119.044 17.0078 118.367 16.7109C117.69 16.4089 117.167 15.9974 116.797 15.4766C116.432 14.9557 116.25 14.3646 116.25 13.7031H117.758C117.758 14.3906 118.01 14.9349 118.516 15.3359C119.026 15.7318 119.706 15.9297 120.555 15.9297C121.346 15.9297 121.953 15.7682 122.375 15.4453C122.797 15.1224 123.008 14.6823 123.008 14.125C123.008 13.5677 122.812 13.138 122.422 12.8359C122.031 12.5286 121.323 12.2266 120.297 11.9297ZM128.18 6.5V8.54688H129.758V9.66406H128.18V14.9062C128.18 15.2448 128.25 15.5 128.391 15.6719C128.531 15.8385 128.771 15.9219 129.109 15.9219C129.276 15.9219 129.505 15.8906 129.797 15.8281V17C129.417 17.1042 129.047 17.1562 128.688 17.1562C128.042 17.1562 127.555 16.9609 127.227 16.5703C126.898 16.1797 126.734 15.625 126.734 14.9062V9.66406H125.195V8.54688H126.734V6.5H128.18ZM135.539 9.84375C135.32 9.80729 135.083 9.78906 134.828 9.78906C133.88 9.78906 133.237 10.1927 132.898 11V17H131.453V8.54688H132.859L132.883 9.52344C133.357 8.76823 134.029 8.39062 134.898 8.39062C135.18 8.39062 135.393 8.42708 135.539 8.5V9.84375ZM140.227 17.1562C139.081 17.1562 138.148 16.7812 137.43 16.0312C136.711 15.276 136.352 14.2682 136.352 13.0078V12.7422C136.352 11.9036 136.51 11.1562 136.828 10.5C137.151 9.83854 137.599 9.32292 138.172 8.95312C138.75 8.57812 139.375 8.39062 140.047 8.39062C141.146 8.39062 142 8.7526 142.609 9.47656C143.219 10.2005 143.523 11.237 143.523 12.5859V13.1875H137.797C137.818 14.0208 138.06 14.6953 138.523 15.2109C138.992 15.7214 139.586 15.9766 140.305 15.9766C140.815 15.9766 141.247 15.8724 141.602 15.6641C141.956 15.4557 142.266 15.1797 142.531 14.8359L143.414 15.5234C142.706 16.612 141.643 17.1562 140.227 17.1562ZM140.047 9.57812C139.464 9.57812 138.974 9.79167 138.578 10.2188C138.182 10.6406 137.938 11.2344 137.844 12H142.078V11.8906C142.036 11.1562 141.839 10.5885 141.484 10.1875C141.13 9.78125 140.651 9.57812 140.047 9.57812ZM148.711 17.1562C147.565 17.1562 146.633 16.7812 145.914 16.0312C145.195 15.276 144.836 14.2682 144.836 13.0078V12.7422C144.836 11.9036 144.995 11.1562 145.312 10.5C145.635 9.83854 146.083 9.32292 146.656 8.95312C147.234 8.57812 147.859 8.39062 148.531 8.39062C149.63 8.39062 150.484 8.7526 151.094 9.47656C151.703 10.2005 152.008 11.237 152.008 12.5859V13.1875H146.281C146.302 14.0208 146.544 14.6953 147.008 15.2109C147.477 15.7214 148.07 15.9766 148.789 15.9766C149.299 15.9766 149.732 15.8724 150.086 15.6641C150.44 15.4557 150.75 15.1797 151.016 14.8359L151.898 15.5234C151.19 16.612 150.128 17.1562 148.711 17.1562ZM148.531 9.57812C147.948 9.57812 147.458 9.79167 147.062 10.2188C146.667 10.6406 146.422 11.2344 146.328 12H150.562V11.8906C150.521 11.1562 150.323 10.5885 149.969 10.1875C149.615 9.78125 149.135 9.57812 148.531 9.57812ZM155.648 6.5V8.54688H157.227V9.66406H155.648V14.9062C155.648 15.2448 155.719 15.5 155.859 15.6719C156 15.8385 156.24 15.9219 156.578 15.9219C156.745 15.9219 156.974 15.8906 157.266 15.8281V17C156.885 17.1042 156.516 17.1562 156.156 17.1562C155.51 17.1562 155.023 16.9609 154.695 16.5703C154.367 16.1797 154.203 15.625 154.203 14.9062V9.66406H152.664V8.54688H154.203V6.5H155.648Z" fill="#666666"/>
<rect width="64" height="64" rx="8" fill="#20313B"/>
<path fill-rule="evenodd" clip-rule="evenodd" d="M32 22C35.87 22 39 25.13 39 29C39 34.25 32 42 32 42C32 42 25 34.25 25 29C25 25.13 28.13 22 32 22ZM27 29C27 31.85 29.92 36.21 32 38.88C34.12 36.19 37 31.88 37 29C37 26.24 34.76 24 32 24C29.24 24 27 26.24 27 29ZM32 31.5C30.6193 31.5 29.5 30.3807 29.5 29C29.5 27.6193 30.6193 26.5 32 26.5C33.3807 26.5 34.5 27.6193 34.5 29C34.5 30.3807 33.3807 31.5 32 31.5Z" fill="white"/>
</svg>
