<svg width="232" height="64" viewBox="0 0 232 64" fill="none" xmlns="http://www.w3.org/2000/svg">
<path d="M88.4 56.24C87.184 56.224 86.112 55.952 85.184 55.424C84.272 54.88 83.504 54.192 82.88 53.36C82.256 52.512 81.784 51.584 81.464 50.576C81.16 49.552 81.008 48.56 81.008 47.6C81.008 46.576 81.176 45.552 81.512 44.528C81.864 43.488 82.36 42.56 83 41.744C83.64 40.912 84.416 40.24 85.328 39.728C86.24 39.216 87.264 38.96 88.4 38.96C89.616 38.96 90.688 39.24 91.616 39.8C92.544 40.344 93.32 41.04 93.944 41.888C94.568 42.736 95.032 43.672 95.336 44.696C95.656 45.704 95.816 46.672 95.816 47.6C95.816 48.64 95.64 49.672 95.288 50.696C94.952 51.72 94.464 52.648 93.824 53.48C93.184 54.296 92.408 54.96 91.496 55.472C90.584 55.984 89.552 56.24 88.4 56.24ZM84.344 47.6C84.36 48.272 84.448 48.944 84.608 49.616C84.784 50.288 85.032 50.904 85.352 51.464C85.688 52.008 86.104 52.456 86.6 52.808C87.112 53.144 87.712 53.312 88.4 53.312C89.12 53.312 89.736 53.128 90.248 52.76C90.76 52.392 91.176 51.928 91.496 51.368C91.832 50.792 92.08 50.176 92.24 49.52C92.4 48.848 92.48 48.208 92.48 47.6C92.48 46.928 92.392 46.256 92.216 45.584C92.04 44.912 91.784 44.304 91.448 43.76C91.112 43.2 90.688 42.752 90.176 42.416C89.664 42.064 89.072 41.888 88.4 41.888C87.696 41.888 87.088 42.072 86.576 42.44C86.064 42.808 85.64 43.28 85.304 43.856C84.984 44.416 84.744 45.032 84.584 45.704C84.424 46.376 84.344 47.008 84.344 47.6ZM107.826 53.096V56H98.1777V53.096H101.49V42.008C101.362 42.2 101.146 42.416 100.842 42.656C100.554 42.88 100.218 43.104 99.8338 43.328C99.4658 43.536 99.0818 43.712 98.6818 43.856C98.2978 44 97.9458 44.072 97.6258 44.072V41.096C98.0578 41.096 98.4978 40.984 98.9458 40.76C99.3938 40.52 99.8018 40.264 100.17 39.992C100.554 39.704 100.866 39.44 101.106 39.2C101.346 38.96 101.474 38.824 101.49 38.792H104.778V53.096H107.826ZM109.494 50.864V47.96H116.766V50.864H109.494ZM119.117 56C119.117 54.896 119.189 53.936 119.333 53.12C119.493 52.288 119.741 51.56 120.077 50.936C120.429 50.312 120.885 49.768 121.445 49.304C122.005 48.84 122.693 48.408 123.509 48.008C124.037 47.752 124.557 47.512 125.069 47.288C125.581 47.048 126.045 46.776 126.461 46.472C126.877 46.168 127.213 45.824 127.469 45.44C127.725 45.04 127.853 44.56 127.853 44C127.853 43.28 127.629 42.712 127.181 42.296C126.749 41.864 126.133 41.648 125.333 41.648C124.885 41.648 124.453 41.712 124.037 41.84C123.637 41.968 123.261 42.136 122.909 42.344C122.557 42.536 122.237 42.752 121.949 42.992C121.661 43.232 121.413 43.464 121.205 43.688L119.189 41.576C119.397 41.32 119.701 41.032 120.101 40.712C120.501 40.376 120.973 40.064 121.517 39.776C122.077 39.488 122.709 39.248 123.413 39.056C124.117 38.848 124.893 38.744 125.741 38.744C126.669 38.744 127.485 38.872 128.189 39.128C128.909 39.384 129.509 39.744 129.989 40.208C130.485 40.656 130.853 41.2 131.093 41.84C131.349 42.48 131.477 43.184 131.477 43.952C131.477 44.688 131.365 45.328 131.141 45.872C130.917 46.4 130.613 46.872 130.229 47.288C129.861 47.704 129.421 48.072 128.909 48.392C128.413 48.696 127.877 48.984 127.301 49.256C126.693 49.56 126.141 49.856 125.645 50.144C125.165 50.416 124.749 50.704 124.397 51.008C124.061 51.312 123.797 51.632 123.605 51.968C123.429 52.304 123.341 52.68 123.341 53.096H131.501V56H119.117ZM139.286 56.216C137.894 56.216 136.71 55.928 135.734 55.352C134.774 54.776 134.102 53.952 133.718 52.88L135.422 50.768C135.47 50.992 135.582 51.248 135.758 51.536C135.934 51.808 136.174 52.08 136.478 52.352C136.798 52.608 137.182 52.824 137.63 53C138.094 53.176 138.63 53.264 139.238 53.264C139.654 53.264 140.046 53.216 140.414 53.12C140.798 53.008 141.134 52.856 141.422 52.664C141.71 52.472 141.934 52.24 142.094 51.968C142.27 51.68 142.358 51.352 142.358 50.984C142.358 50.168 141.926 49.56 141.062 49.16C140.198 48.76 138.99 48.56 137.438 48.56H136.646V45.872H137.438C138.078 45.872 138.67 45.832 139.214 45.752C139.758 45.656 140.23 45.52 140.63 45.344C141.03 45.152 141.342 44.912 141.566 44.624C141.79 44.336 141.902 43.992 141.902 43.592C141.902 43.24 141.822 42.936 141.662 42.68C141.518 42.424 141.326 42.216 141.086 42.056C140.846 41.896 140.574 41.776 140.27 41.696C139.982 41.616 139.694 41.576 139.406 41.576C138.926 41.576 138.486 41.64 138.086 41.768C137.686 41.88 137.334 42.032 137.03 42.224C136.726 42.4 136.462 42.608 136.238 42.848C136.03 43.072 135.862 43.296 135.734 43.52L133.67 41.192C133.942 40.808 134.286 40.464 134.702 40.16C135.118 39.856 135.582 39.6 136.094 39.392C136.606 39.184 137.142 39.024 137.702 38.912C138.262 38.8 138.822 38.744 139.382 38.744C140.246 38.744 141.038 38.864 141.758 39.104C142.494 39.344 143.126 39.68 143.654 40.112C144.182 40.528 144.59 41.024 144.878 41.6C145.182 42.16 145.334 42.768 145.334 43.424C145.334 44.384 145.046 45.176 144.47 45.8C143.894 46.408 143.11 46.824 142.118 47.048C142.662 47.144 143.15 47.328 143.582 47.6C144.03 47.856 144.406 48.184 144.71 48.584C145.03 48.968 145.27 49.408 145.43 49.904C145.606 50.384 145.694 50.888 145.694 51.416C145.694 52.232 145.51 52.944 145.142 53.552C144.774 54.144 144.286 54.64 143.678 55.04C143.086 55.424 142.406 55.72 141.638 55.928C140.87 56.12 140.086 56.216 139.286 56.216ZM154.573 56V52.136H147.397V49.256L155.581 38.96H157.789V49.232H159.901V52.136H157.789V56H154.573ZM150.637 49.232H154.933V43.808L150.637 49.232ZM167.964 44.984C168.764 44.984 169.508 45.12 170.196 45.392C170.884 45.664 171.476 46.04 171.972 46.52C172.484 47 172.876 47.576 173.148 48.248C173.436 48.92 173.58 49.656 173.58 50.456C173.58 51.32 173.42 52.104 173.1 52.808C172.796 53.512 172.364 54.12 171.804 54.632C171.244 55.144 170.58 55.544 169.812 55.832C169.044 56.104 168.204 56.24 167.292 56.24C166.044 56.24 164.932 55.976 163.956 55.448C162.98 54.92 162.228 54.192 161.7 53.264L163.548 51.344C164.012 51.968 164.572 52.464 165.228 52.832C165.9 53.2 166.596 53.384 167.316 53.384C168.18 53.384 168.884 53.128 169.428 52.616C169.988 52.088 170.268 51.392 170.268 50.528C170.268 50.128 170.196 49.76 170.052 49.424C169.924 49.072 169.732 48.776 169.476 48.536C169.236 48.28 168.948 48.088 168.612 47.96C168.276 47.816 167.908 47.744 167.508 47.744C166.996 47.744 166.508 47.864 166.044 48.104C165.58 48.344 165.212 48.672 164.94 49.088H162.132C162.132 49.04 162.164 48.864 162.228 48.56C162.292 48.24 162.372 47.84 162.468 47.36C162.564 46.864 162.668 46.32 162.78 45.728C162.892 45.12 163.012 44.504 163.14 43.88C163.428 42.424 163.748 40.784 164.1 38.96H172.5V41.888H166.428L165.756 45.704C165.948 45.48 166.228 45.304 166.596 45.176C166.964 45.048 167.42 44.984 167.964 44.984ZM188.108 50.312C188.108 51.144 187.948 51.92 187.628 52.64C187.308 53.36 186.868 53.992 186.308 54.536C185.748 55.064 185.084 55.48 184.316 55.784C183.564 56.088 182.748 56.24 181.868 56.24C180.908 56.24 180.036 56.064 179.252 55.712C178.484 55.36 177.828 54.848 177.284 54.176C176.74 53.504 176.324 52.688 176.036 51.728C175.748 50.752 175.604 49.648 175.604 48.416C175.604 46.864 175.756 45.496 176.06 44.312C176.364 43.112 176.804 42.112 177.38 41.312C177.956 40.496 178.652 39.88 179.468 39.464C180.284 39.048 181.196 38.84 182.204 38.84C183.276 38.84 184.26 39.072 185.156 39.536C186.068 40 186.836 40.664 187.46 41.528L185.612 43.544C185.228 42.936 184.732 42.464 184.124 42.128C183.516 41.792 182.86 41.624 182.156 41.624C181.084 41.624 180.228 42.048 179.588 42.896C178.948 43.744 178.612 44.944 178.58 46.496C178.916 45.92 179.388 45.464 179.996 45.128C180.62 44.792 181.34 44.624 182.156 44.624C182.988 44.624 183.764 44.768 184.484 45.056C185.22 45.344 185.852 45.744 186.38 46.256C186.924 46.768 187.348 47.376 187.652 48.08C187.956 48.768 188.108 49.512 188.108 50.312ZM181.892 53.528C182.308 53.528 182.708 53.448 183.092 53.288C183.476 53.112 183.812 52.88 184.1 52.592C184.388 52.288 184.612 51.944 184.772 51.56C184.948 51.16 185.036 50.744 185.036 50.312C185.036 49.88 184.948 49.48 184.772 49.112C184.612 48.728 184.388 48.392 184.1 48.104C183.812 47.816 183.476 47.592 183.092 47.432C182.724 47.272 182.324 47.192 181.892 47.192C181.46 47.192 181.052 47.272 180.668 47.432C180.284 47.592 179.948 47.816 179.66 48.104C179.372 48.392 179.148 48.728 178.988 49.112C178.828 49.48 178.748 49.88 178.748 50.312C178.748 50.744 178.828 51.16 178.988 51.56C179.164 51.944 179.396 52.28 179.684 52.568C179.972 52.856 180.3 53.088 180.668 53.264C181.052 53.44 181.46 53.528 181.892 53.528ZM197.364 41.888H189.636V38.96H202.452L193.98 56H190.332L197.364 41.888ZM215.784 50.96C215.784 51.76 215.616 52.48 215.28 53.12C214.96 53.76 214.512 54.312 213.936 54.776C213.376 55.24 212.72 55.6 211.968 55.856C211.216 56.096 210.416 56.216 209.568 56.216C208.72 56.216 207.92 56.088 207.168 55.832C206.416 55.56 205.76 55.184 205.2 54.704C204.64 54.224 204.2 53.656 203.88 53C203.56 52.344 203.4 51.624 203.4 50.84C203.4 50.36 203.48 49.92 203.64 49.52C203.8 49.104 204.008 48.728 204.264 48.392C204.52 48.056 204.8 47.76 205.104 47.504C205.424 47.248 205.744 47.04 206.064 46.88C205.472 46.592 204.968 46.16 204.552 45.584C204.136 45.008 203.928 44.376 203.928 43.688C203.928 42.92 204.096 42.248 204.432 41.672C204.784 41.08 205.232 40.584 205.776 40.184C206.336 39.784 206.944 39.48 207.6 39.272C208.272 39.064 208.936 38.96 209.592 38.96C210.232 38.96 210.888 39.064 211.56 39.272C212.248 39.464 212.864 39.76 213.408 40.16C213.952 40.56 214.4 41.056 214.752 41.648C215.104 42.224 215.28 42.896 215.28 43.664C215.28 44 215.224 44.336 215.112 44.672C215 44.992 214.84 45.296 214.632 45.584C214.44 45.856 214.208 46.104 213.936 46.328C213.664 46.552 213.376 46.736 213.072 46.88C213.424 47.056 213.76 47.28 214.08 47.552C214.4 47.808 214.688 48.112 214.944 48.464C215.2 48.8 215.4 49.176 215.544 49.592C215.704 50.008 215.784 50.464 215.784 50.96ZM212.52 50.768C212.52 50.368 212.432 50.008 212.256 49.688C212.096 49.368 211.872 49.104 211.584 48.896C211.312 48.672 211 48.504 210.648 48.392C210.296 48.28 209.936 48.224 209.568 48.224C209.184 48.224 208.816 48.288 208.464 48.416C208.112 48.528 207.8 48.696 207.528 48.92C207.272 49.144 207.064 49.416 206.904 49.736C206.744 50.04 206.664 50.384 206.664 50.768C206.664 51.152 206.744 51.504 206.904 51.824C207.08 52.128 207.304 52.392 207.576 52.616C207.848 52.84 208.16 53.016 208.512 53.144C208.864 53.256 209.224 53.312 209.592 53.312C209.976 53.312 210.344 53.248 210.696 53.12C211.048 52.992 211.36 52.816 211.632 52.592C211.904 52.368 212.12 52.104 212.28 51.8C212.44 51.48 212.52 51.136 212.52 50.768ZM207.192 43.784C207.192 44.12 207.264 44.416 207.408 44.672C207.552 44.912 207.736 45.12 207.96 45.296C208.2 45.456 208.456 45.584 208.728 45.68C209.016 45.76 209.304 45.8 209.592 45.8C209.864 45.8 210.144 45.76 210.432 45.68C210.72 45.584 210.976 45.448 211.2 45.272C211.44 45.096 211.632 44.888 211.776 44.648C211.92 44.392 211.992 44.096 211.992 43.76C211.992 43.168 211.752 42.696 211.272 42.344C210.808 41.992 210.24 41.816 209.568 41.816C208.912 41.816 208.352 42 207.888 42.368C207.424 42.72 207.192 43.192 207.192 43.784ZM217.788 44.768C217.788 43.936 217.948 43.16 218.268 42.44C218.588 41.72 219.028 41.096 219.588 40.568C220.148 40.024 220.804 39.6 221.556 39.296C222.324 38.992 223.148 38.84 224.028 38.84C224.988 38.84 225.852 39.016 226.62 39.368C227.404 39.72 228.06 40.232 228.588 40.904C229.132 41.56 229.548 42.376 229.836 43.352C230.14 44.312 230.292 45.408 230.292 46.64C230.292 48.192 230.132 49.568 229.812 50.768C229.508 51.952 229.068 52.952 228.492 53.768C227.932 54.584 227.244 55.2 226.428 55.616C225.612 56.032 224.7 56.24 223.692 56.24C222.62 56.24 221.628 56.008 220.716 55.544C219.82 55.064 219.06 54.392 218.436 53.528L220.284 51.512C220.668 52.12 221.156 52.592 221.748 52.928C222.356 53.264 223.02 53.432 223.74 53.432C224.812 53.432 225.668 53.008 226.308 52.16C226.948 51.312 227.284 50.112 227.316 48.56C226.98 49.136 226.5 49.592 225.876 49.928C225.252 50.264 224.54 50.432 223.74 50.432C222.892 50.432 222.108 50.288 221.388 50C220.668 49.712 220.036 49.312 219.492 48.8C218.964 48.288 218.548 47.688 218.244 47C217.94 46.312 217.788 45.568 217.788 44.768ZM224.004 41.528C223.572 41.528 223.164 41.616 222.78 41.792C222.412 41.968 222.084 42.2 221.796 42.488C221.524 42.776 221.3 43.12 221.124 43.52C220.964 43.904 220.884 44.312 220.884 44.744C220.884 45.176 220.964 45.584 221.124 45.968C221.3 46.336 221.524 46.664 221.796 46.952C222.084 47.24 222.42 47.464 222.804 47.624C223.188 47.784 223.596 47.864 224.028 47.864C224.46 47.864 224.868 47.784 225.252 47.624C225.636 47.464 225.964 47.248 226.236 46.976C226.524 46.688 226.748 46.36 226.908 45.992C227.084 45.608 227.172 45.2 227.172 44.768C227.172 44.336 227.084 43.928 226.908 43.544C226.748 43.144 226.524 42.8 226.236 42.512C225.948 42.208 225.612 41.968 225.228 41.792C224.844 41.616 224.436 41.528 224.004 41.528Z" fill="#333333"/>
<path d="M82.8203 12.5469V17H81.3203V5.625H85.5156C86.7604 5.625 87.7344 5.94271 88.4375 6.57812C89.1458 7.21354 89.5 8.05469 89.5 9.10156C89.5 10.2057 89.1536 11.0573 88.4609 11.6562C87.7734 12.25 86.7865 12.5469 85.5 12.5469H82.8203ZM82.8203 11.3203H85.5156C86.3177 11.3203 86.9323 11.1328 87.3594 10.7578C87.7865 10.3776 88 9.83073 88 9.11719C88 8.4401 87.7865 7.89844 87.3594 7.49219C86.9323 7.08594 86.3464 6.875 85.6016 6.85938H82.8203V11.3203ZM92.6328 9.57031C93.2734 8.78385 94.1068 8.39062 95.1328 8.39062C96.9193 8.39062 97.8203 9.39844 97.8359 11.4141V17H96.3906V11.4062C96.3854 10.7969 96.2448 10.3464 95.9688 10.0547C95.6979 9.76302 95.2734 9.61719 94.6953 9.61719C94.2266 9.61719 93.8151 9.74219 93.4609 9.99219C93.1068 10.2422 92.8307 10.5703 92.6328 10.9766V17H91.1875V5H92.6328V9.57031ZM99.6172 12.6953C99.6172 11.8672 99.7786 11.1224 100.102 10.4609C100.43 9.79948 100.883 9.28906 101.461 8.92969C102.044 8.57031 102.708 8.39062 103.453 8.39062C104.604 8.39062 105.534 8.78906 106.242 9.58594C106.956 10.3828 107.312 11.4427 107.312 12.7656V12.8672C107.312 13.6901 107.154 14.4297 106.836 15.0859C106.523 15.737 106.073 16.2448 105.484 16.6094C104.901 16.974 104.229 17.1562 103.469 17.1562C102.323 17.1562 101.393 16.7578 100.68 15.9609C99.9714 15.1641 99.6172 14.1094 99.6172 12.7969V12.6953ZM101.07 12.8672C101.07 13.8047 101.286 14.5573 101.719 15.125C102.156 15.6927 102.74 15.9766 103.469 15.9766C104.203 15.9766 104.786 15.6901 105.219 15.1172C105.651 14.5391 105.867 13.7318 105.867 12.6953C105.867 11.7682 105.646 11.0182 105.203 10.4453C104.766 9.86719 104.182 9.57812 103.453 9.57812C102.74 9.57812 102.164 9.86198 101.727 10.4297C101.289 10.9974 101.07 11.8099 101.07 12.8672ZM110.492 8.54688L110.539 9.60938C111.185 8.79688 112.029 8.39062 113.07 8.39062C114.857 8.39062 115.758 9.39844 115.773 11.4141V17H114.328V11.4062C114.323 10.7969 114.182 10.3464 113.906 10.0547C113.635 9.76302 113.211 9.61719 112.633 9.61719C112.164 9.61719 111.753 9.74219 111.398 9.99219C111.044 10.2422 110.768 10.5703 110.57 10.9766V17H109.125V8.54688H110.492ZM121.461 17.1562C120.315 17.1562 119.383 16.7812 118.664 16.0312C117.945 15.276 117.586 14.2682 117.586 13.0078V12.7422C117.586 11.9036 117.745 11.1562 118.062 10.5C118.385 9.83854 118.833 9.32292 119.406 8.95312C119.984 8.57812 120.609 8.39062 121.281 8.39062C122.38 8.39062 123.234 8.7526 123.844 9.47656C124.453 10.2005 124.758 11.237 124.758 12.5859V13.1875H119.031C119.052 14.0208 119.294 14.6953 119.758 15.2109C120.227 15.7214 120.82 15.9766 121.539 15.9766C122.049 15.9766 122.482 15.8724 122.836 15.6641C123.19 15.4557 123.5 15.1797 123.766 14.8359L124.648 15.5234C123.94 16.612 122.878 17.1562 121.461 17.1562ZM121.281 9.57812C120.698 9.57812 120.208 9.79167 119.812 10.2188C119.417 10.6406 119.172 11.2344 119.078 12H123.312V11.8906C123.271 11.1562 123.073 10.5885 122.719 10.1875C122.365 9.78125 121.885 9.57812 121.281 9.57812ZM139.375 17H137.867L132.141 8.23438V17H130.633V5.625H132.141L137.883 14.4297V5.625H139.375V17ZM147.031 16.1641C146.469 16.8255 145.643 17.1562 144.555 17.1562C143.654 17.1562 142.966 16.8958 142.492 16.375C142.023 15.849 141.786 15.0729 141.781 14.0469V8.54688H143.227V14.0078C143.227 15.2891 143.747 15.9297 144.789 15.9297C145.893 15.9297 146.628 15.5182 146.992 14.6953V8.54688H148.438V17H147.062L147.031 16.1641ZM152 8.54688L152.039 9.48438C152.659 8.75521 153.495 8.39062 154.547 8.39062C155.729 8.39062 156.534 8.84375 156.961 9.75C157.242 9.34375 157.607 9.01562 158.055 8.76562C158.508 8.51562 159.042 8.39062 159.656 8.39062C161.51 8.39062 162.453 9.3724 162.484 11.3359V17H161.039V11.4219C161.039 10.8177 160.901 10.3672 160.625 10.0703C160.349 9.76823 159.885 9.61719 159.234 9.61719C158.698 9.61719 158.253 9.77865 157.898 10.1016C157.544 10.4193 157.339 10.849 157.281 11.3906V17H155.828V11.4609C155.828 10.2318 155.227 9.61719 154.023 9.61719C153.076 9.61719 152.427 10.0208 152.078 10.8281V17H150.633V8.54688H152ZM171.828 12.8672C171.828 14.1589 171.531 15.1979 170.938 15.9844C170.344 16.7656 169.547 17.1562 168.547 17.1562C167.479 17.1562 166.654 16.7786 166.07 16.0234L166 17H164.672V5H166.117V9.47656C166.701 8.7526 167.505 8.39062 168.531 8.39062C169.557 8.39062 170.362 8.77865 170.945 9.55469C171.534 10.3307 171.828 11.3932 171.828 12.7422V12.8672ZM170.383 12.7031C170.383 11.7188 170.193 10.9583 169.812 10.4219C169.432 9.88542 168.885 9.61719 168.172 9.61719C167.219 9.61719 166.534 10.0599 166.117 10.9453V14.6016C166.56 15.487 167.25 15.9297 168.188 15.9297C168.88 15.9297 169.419 15.6615 169.805 15.125C170.19 14.5885 170.383 13.7812 170.383 12.7031ZM177.164 17.1562C176.018 17.1562 175.086 16.7812 174.367 16.0312C173.648 15.276 173.289 14.2682 173.289 13.0078V12.7422C173.289 11.9036 173.448 11.1562 173.766 10.5C174.089 9.83854 174.536 9.32292 175.109 8.95312C175.688 8.57812 176.312 8.39062 176.984 8.39062C178.083 8.39062 178.938 8.7526 179.547 9.47656C180.156 10.2005 180.461 11.237 180.461 12.5859V13.1875H174.734C174.755 14.0208 174.997 14.6953 175.461 15.2109C175.93 15.7214 176.523 15.9766 177.242 15.9766C177.753 15.9766 178.185 15.8724 178.539 15.6641C178.893 15.4557 179.203 15.1797 179.469 14.8359L180.352 15.5234C179.643 16.612 178.581 17.1562 177.164 17.1562ZM176.984 9.57812C176.401 9.57812 175.911 9.79167 175.516 10.2188C175.12 10.6406 174.875 11.2344 174.781 12H179.016V11.8906C178.974 11.1562 178.776 10.5885 178.422 10.1875C178.068 9.78125 177.589 9.57812 176.984 9.57812ZM186.227 9.84375C186.008 9.80729 185.771 9.78906 185.516 9.78906C184.568 9.78906 183.924 10.1927 183.586 11V17H182.141V8.54688H183.547L183.57 9.52344C184.044 8.76823 184.716 8.39062 185.586 8.39062C185.867 8.39062 186.081 8.42708 186.227 8.5V9.84375Z" fill="#666666"/>
<rect width="64" height="64" rx="8" fill="#20313B"/>
<path fill-rule="evenodd" clip-rule="evenodd" d="M26.54 25C26.6 25.89 26.75 26.76 26.99 27.59L25.79 28.79C25.38 27.59 25.12 26.32 25.03 25H26.54ZM36.4 37.02C37.25 37.26 38.12 37.41 39 37.47V38.96C37.68 38.87 36.41 38.61 35.2 38.21L36.4 37.02ZM27.5 23H24C23.45 23 23 23.45 23 24C23 33.39 30.61 41 40 41C40.55 41 41 40.55 41 40V36.51C41 35.96 40.55 35.51 40 35.51C38.76 35.51 37.55 35.31 36.43 34.94C36.33 34.9 36.22 34.89 36.12 34.89C35.86 34.89 35.61 34.99 35.41 35.18L33.21 37.38C30.38 35.93 28.06 33.62 26.62 30.79L28.82 28.59C29.1 28.31 29.18 27.92 29.07 27.57C28.7 26.45 28.5 25.25 28.5 24C28.5 23.45 28.05 23 27.5 23Z" fill="white"/>
</svg>
