<svg width="25" height="25" viewBox="0 0 25 25" fill="none" xmlns="http://www.w3.org/2000/svg">
<path d="M21.3379 0H3.66211C1.64299 0 0 1.64299 0 3.66211V21.3379C0 23.357 1.64299 25 3.66211 25H21.3379C23.357 25 25 23.357 25 21.3379V3.66211C25 1.64299 23.357 0 21.3379 0ZM8.83789 19.8242H5.9082V9.57031H8.83789V19.8242ZM8.83789 8.10547H5.9082V5.17578H8.83789V8.10547ZM19.0918 19.8242H16.1621V13.9648C16.1621 13.1573 15.5048 12.5 14.6973 12.5C13.8897 12.5 13.2324 13.1573 13.2324 13.9648V19.8242H10.3027V9.57031H13.2324V10.1225C13.9999 9.88388 14.4985 9.57031 15.4297 9.57031C17.4166 9.57241 19.0918 11.3548 19.0918 13.4613V19.8242Z" fill="white"/>
</svg>
