<svg width="25" height="21" viewBox="0 0 25 21" fill="none" xmlns="http://www.w3.org/2000/svg">
<path d="M9.32674 20.7561C8.24566 20.7561 7.13291 20.6686 6.01349 20.4931C4.04186 20.1837 2.04601 19.1524 1.48125 18.8436L0 18.0337L1.6037 17.5064C3.35674 16.93 4.42314 16.5723 5.74322 16.0123C4.42142 15.3722 3.40271 14.2208 2.91233 12.7323L2.53925 11.5997L2.84519 11.6464C2.55508 11.354 2.32601 11.0572 2.14844 10.7873C1.51691 9.82814 1.18256 8.65607 1.2537 7.65166L1.32389 6.66308L1.91574 6.89234C1.66607 6.42085 1.48563 5.91731 1.37959 5.38954C1.12114 4.10247 1.33743 2.73509 1.98879 1.53937L2.50435 0.592944L3.19386 1.42111C5.37453 4.04067 8.13656 5.59458 11.4147 6.04949C11.2808 5.12652 11.3811 4.23579 11.7132 3.43737C12.0998 2.50773 12.7876 1.71942 13.7016 1.15752C14.7167 0.533625 15.9477 0.23131 17.1679 0.306269C18.4624 0.385806 19.6377 0.870844 20.5711 1.70989C21.027 1.59144 21.3629 1.46498 21.8168 1.29409C22.09 1.19128 22.3997 1.07455 22.7873 0.941035L24.2155 0.448939L23.2841 3.10893C23.3456 3.10378 23.4089 3.09939 23.4751 3.09653L25.0002 3.02748L24.0988 4.25944C24.0471 4.33001 24.0339 4.35004 24.0156 4.3777C23.9429 4.48718 23.8525 4.62336 22.6152 6.27551C22.3055 6.68921 22.1508 7.22804 22.1796 7.79299C22.2893 9.93991 22.0259 11.8823 21.3963 13.5662C20.8008 15.1592 19.878 16.526 18.6539 17.6286C17.1391 18.9928 15.2075 19.9268 12.9126 20.4044C11.7868 20.6386 10.578 20.7561 9.32674 20.7561Z" fill="white"/>
</svg>
