<svg width="88" height="58" viewBox="0 0 88 58" fill="none" xmlns="http://www.w3.org/2000/svg">
<circle cx="29" cy="29" r="29" fill="#F78500"/>
<path d="M28.736 28.632C29.104 28.632 29.368 28.712 29.528 28.872C29.704 29.032 29.792 29.24 29.792 29.496C29.792 29.912 29.664 30.28 29.408 30.6C29.168 30.92 28.784 31.088 28.256 31.104C26.976 31.136 25.84 31.04 24.848 30.816C23.712 33.2 22.336 35.184 20.72 36.768C19.12 38.336 17.512 39.12 15.896 39.12C14.232 39.12 12.992 38.152 12.176 36.216C11.36 34.28 10.952 31.664 10.952 28.368C10.952 25.552 11.152 23.024 11.552 20.784C11.696 19.952 11.896 19.392 12.152 19.104C12.424 18.8 12.88 18.648 13.52 18.648C14.576 18.648 15.104 19.104 15.104 20.016C15.104 20.112 15.088 20.288 15.056 20.544C14.576 23.424 14.336 26.032 14.336 28.368C14.336 30.816 14.536 32.68 14.936 33.96C15.352 35.224 15.968 35.856 16.784 35.856C17.616 35.856 18.52 35.28 19.496 34.128C20.472 32.976 21.368 31.528 22.184 29.784C21.208 29.176 20.472 28.392 19.976 27.432C19.48 26.456 19.232 25.336 19.232 24.072C19.232 22.808 19.424 21.744 19.808 20.88C20.208 20 20.744 19.344 21.416 18.912C22.104 18.48 22.864 18.264 23.696 18.264C24.72 18.264 25.528 18.632 26.12 19.368C26.728 20.104 27.032 21.112 27.032 22.392C27.032 24.232 26.632 26.24 25.832 28.416C26.68 28.56 27.648 28.632 28.736 28.632ZM21.656 23.904C21.656 25.472 22.16 26.632 23.168 27.384C23.792 25.592 24.104 24.112 24.104 22.944C24.104 22.272 24.016 21.784 23.84 21.48C23.664 21.16 23.424 21 23.12 21C22.688 21 22.336 21.256 22.064 21.768C21.792 22.264 21.656 22.976 21.656 23.904ZM30.6007 26.232C29.9287 26.232 29.4247 26.08 29.0887 25.776C28.7527 25.456 28.5847 25.016 28.5847 24.456C28.5847 23.896 28.8007 23.432 29.2327 23.064C29.6807 22.68 30.2327 22.488 30.8887 22.488C31.4807 22.488 31.9607 22.632 32.3287 22.92C32.6967 23.208 32.8807 23.616 32.8807 24.144C32.8807 24.784 32.6727 25.296 32.2567 25.68C31.8407 26.048 31.2887 26.232 30.6007 26.232ZM30.4087 39.12C29.3687 39.12 28.6087 38.752 28.1287 38.016C27.6647 37.28 27.4327 36.304 27.4327 35.088C27.4327 34.368 27.5207 33.448 27.6967 32.328C27.8887 31.192 28.1287 30.136 28.4167 29.16C28.5607 28.648 28.7527 28.296 28.9927 28.104C29.2327 27.912 29.6167 27.816 30.1447 27.816C30.9607 27.816 31.3687 28.088 31.3687 28.632C31.3687 29.032 31.2167 29.96 30.9127 31.416C30.5287 33.176 30.3367 34.368 30.3367 34.992C30.3367 35.472 30.4007 35.84 30.5287 36.096C30.6567 36.352 30.8727 36.48 31.1767 36.48C31.4647 36.48 31.8247 36.28 32.2567 35.88C32.6887 35.48 33.2647 34.848 33.9847 33.984C34.1767 33.76 34.3927 33.648 34.6327 33.648C34.8407 33.648 35.0007 33.744 35.1127 33.936C35.2407 34.128 35.3047 34.392 35.3047 34.728C35.3047 35.368 35.1527 35.864 34.8487 36.216C33.2647 38.152 31.7847 39.12 30.4087 39.12ZM37.8269 39.648C36.9949 39.648 36.3549 39.456 35.9069 39.072C35.4749 38.688 35.2589 38.256 35.2589 37.776C35.2589 37.36 35.4109 37 35.7149 36.696C36.0189 36.392 36.4669 36.24 37.0589 36.24C37.2669 36.24 37.5069 36.264 37.7789 36.312C38.0669 36.344 38.2829 36.368 38.4269 36.384C38.4109 35.968 38.3149 35.576 38.1389 35.208C37.9789 34.84 37.7709 34.488 37.5149 34.152C37.2589 33.8 37.0189 33.496 36.7949 33.24C36.2989 34.184 35.8029 34.968 35.3069 35.592C34.8269 36.216 34.2989 36.808 33.7229 37.368C33.4349 37.656 33.1309 37.8 32.8109 37.8C32.5549 37.8 32.3469 37.712 32.1869 37.536C32.0269 37.344 31.9469 37.112 31.9469 36.84C31.9469 36.52 32.0589 36.224 32.2829 35.952L32.5949 35.568C33.4749 34.48 34.1389 33.584 34.5869 32.88C34.8589 32.416 35.1789 31.8 35.5469 31.032C35.9149 30.248 36.2749 29.44 36.6269 28.608C36.9309 27.904 37.5629 27.552 38.5229 27.552C38.9709 27.552 39.2829 27.592 39.4589 27.672C39.6349 27.752 39.7229 27.88 39.7229 28.056C39.7229 28.152 39.6909 28.304 39.6269 28.512C39.5629 28.72 39.4749 28.928 39.3629 29.136C39.0749 29.712 38.9309 30.2 38.9309 30.6C38.9309 30.84 39.0109 31.104 39.1709 31.392C39.3469 31.68 39.6109 32.04 39.9629 32.472C40.4749 33.144 40.8589 33.72 41.1149 34.2C41.3869 34.664 41.5229 35.176 41.5229 35.736C41.5229 35.896 41.5069 36.12 41.4749 36.408C42.2589 36.104 43.1789 35.296 44.2349 33.984C44.4269 33.76 44.6429 33.648 44.8829 33.648C45.0909 33.648 45.2509 33.744 45.3629 33.936C45.4909 34.128 45.5549 34.392 45.5549 34.728C45.5549 35.336 45.4029 35.832 45.0989 36.216C44.2989 37.208 43.5309 37.888 42.7949 38.256C42.0749 38.608 41.1789 38.8 40.1069 38.832C39.4669 39.376 38.7069 39.648 37.8269 39.648ZM46.5571 39.12C45.5651 39.12 44.7731 38.76 44.1811 38.04C43.5891 37.32 43.2931 36.376 43.2931 35.208C43.2931 33.928 43.5891 32.72 44.1811 31.584C44.7731 30.432 45.5571 29.512 46.5331 28.824C47.5251 28.12 48.5731 27.768 49.6771 27.768C50.0291 27.768 50.2611 27.84 50.3731 27.984C50.5011 28.112 50.6051 28.352 50.6851 28.704C51.0211 28.64 51.3731 28.608 51.7411 28.608C52.5251 28.608 52.9171 28.888 52.9171 29.448C52.9171 29.784 52.7971 30.584 52.5571 31.848C52.1891 33.688 52.0051 34.968 52.0051 35.688C52.0051 35.928 52.0611 36.12 52.1731 36.264C52.3011 36.408 52.4611 36.48 52.6531 36.48C52.9571 36.48 53.3251 36.288 53.7571 35.904C54.1891 35.504 54.7731 34.864 55.5091 33.984C55.7011 33.76 55.9171 33.648 56.1571 33.648C56.3651 33.648 56.5251 33.744 56.6371 33.936C56.7651 34.128 56.8291 34.392 56.8291 34.728C56.8291 35.368 56.6771 35.864 56.3731 36.216C55.7171 37.032 55.0211 37.72 54.2851 38.28C53.5491 38.84 52.8371 39.12 52.1491 39.12C51.6211 39.12 51.1331 38.944 50.6851 38.592C50.2531 38.224 49.9251 37.728 49.7011 37.104C48.8691 38.448 47.8211 39.12 46.5571 39.12ZM47.4211 36.696C47.7731 36.696 48.1091 36.488 48.4291 36.072C48.7491 35.656 48.9811 35.104 49.1251 34.416L50.0131 30C49.3411 30.016 48.7171 30.272 48.1411 30.768C47.5811 31.248 47.1331 31.888 46.7971 32.688C46.4611 33.488 46.2931 34.336 46.2931 35.232C46.2931 35.728 46.3891 36.096 46.5811 36.336C46.7891 36.576 47.0691 36.696 47.4211 36.696ZM67.6946 33.648C67.9026 33.648 68.0626 33.744 68.1746 33.936C68.3026 34.128 68.3666 34.392 68.3666 34.728C68.3666 35.368 68.2146 35.864 67.9106 36.216C67.2226 37.064 66.4786 37.76 65.6786 38.304C64.8946 38.848 63.9986 39.12 62.9906 39.12C62.1426 39.12 61.4546 38.816 60.9266 38.208C60.0146 38.8 59.0626 39.104 58.0706 39.12C57.8626 42.208 57.3906 44.784 56.6546 46.848C55.9186 48.928 54.8386 49.968 53.4146 49.968C52.5506 49.968 51.9106 49.656 51.4946 49.032C51.0786 48.408 50.8706 47.544 50.8706 46.44C50.8706 44.872 51.2306 43.04 51.9506 40.944C52.6706 38.864 53.7826 36.568 55.2866 34.056C55.2866 31.72 55.2706 30.096 55.2386 29.184C55.2226 28.72 55.4066 28.352 55.7906 28.08C56.1746 27.808 56.6546 27.672 57.2306 27.672C57.5666 27.672 57.8066 27.744 57.9506 27.888C58.1106 28.016 58.1986 28.28 58.2146 28.68C58.2146 29.08 58.2226 29.376 58.2386 29.568C58.7506 28.928 59.2546 28.472 59.7506 28.2C60.2466 27.912 60.7746 27.768 61.3346 27.768C62.2306 27.768 62.9586 28.128 63.5186 28.848C64.0946 29.568 64.3826 30.512 64.3826 31.68C64.3826 32.528 64.2466 33.352 63.9746 34.152C63.7026 34.952 63.3266 35.68 62.8466 36.336C63.1826 36.432 63.4626 36.48 63.6866 36.48C64.2146 36.48 64.7186 36.288 65.1986 35.904C65.6786 35.52 66.2946 34.88 67.0466 33.984C67.2386 33.76 67.4546 33.648 67.6946 33.648ZM58.1906 36.816C58.7666 36.688 59.2946 36.376 59.7746 35.88C60.2706 35.368 60.6626 34.744 60.9506 34.008C61.2386 33.256 61.3826 32.472 61.3826 31.656C61.3826 31.176 61.2866 30.816 61.0946 30.576C60.9026 30.32 60.6466 30.192 60.3266 30.192C59.7506 30.192 59.0546 30.8 58.2386 32.016C58.2226 32.72 58.2146 33.752 58.2146 35.112C58.2146 35.848 58.2066 36.416 58.1906 36.816ZM53.6066 47.616C54.0386 47.616 54.3986 46.672 54.6866 44.784C54.9746 42.912 55.1586 40.576 55.2386 37.776C54.5506 39.376 54.0066 40.904 53.6066 42.36C53.2066 43.816 53.0066 45.04 53.0066 46.032C53.0066 46.544 53.0706 46.936 53.1986 47.208C53.3106 47.48 53.4466 47.616 53.6066 47.616ZM68.1373 39.12C67.5293 39.12 67.0973 38.8 66.8413 38.16C66.6013 37.52 66.4813 36.496 66.4813 35.088C66.4813 33.008 66.7773 31.032 67.3693 29.16C67.5133 28.696 67.7453 28.36 68.0653 28.152C68.4013 27.928 68.8653 27.816 69.4573 27.816C69.7773 27.816 70.0013 27.856 70.1293 27.936C70.2573 28.016 70.3213 28.168 70.3213 28.392C70.3213 28.648 70.2013 29.224 69.9613 30.12C69.8013 30.76 69.6733 31.32 69.5773 31.8C69.4813 32.28 69.4013 32.872 69.3373 33.576C69.8653 32.2 70.4573 31.08 71.1133 30.216C71.7693 29.352 72.4093 28.736 73.0333 28.368C73.6733 28 74.2573 27.816 74.7853 27.816C75.8253 27.816 76.3453 28.336 76.3453 29.376C76.3453 29.584 76.2733 30.088 76.1293 30.888C76.0013 31.528 75.9373 31.928 75.9373 32.088C75.9373 32.648 76.1373 32.928 76.5373 32.928C76.9853 32.928 77.5613 32.576 78.2653 31.872C78.4733 31.664 78.6893 31.56 78.9133 31.56C79.1213 31.56 79.2813 31.656 79.3932 31.848C79.5213 32.024 79.5853 32.264 79.5853 32.568C79.5853 33.16 79.4253 33.624 79.1053 33.96C78.6573 34.424 78.1293 34.824 77.5213 35.16C76.9293 35.48 76.2973 35.64 75.6253 35.64C74.7773 35.64 74.1293 35.424 73.6813 34.992C73.2493 34.56 73.0333 33.976 73.0333 33.24C73.0333 33 73.0573 32.76 73.1053 32.52C73.1373 32.2 73.1533 31.984 73.1533 31.872C73.1533 31.616 73.0653 31.488 72.8893 31.488C72.6493 31.488 72.3293 31.76 71.9293 32.304C71.5453 32.832 71.1613 33.536 70.7773 34.416C70.3933 35.296 70.0813 36.224 69.8413 37.2C69.6653 37.952 69.4573 38.464 69.2173 38.736C68.9933 38.992 68.6333 39.12 68.1373 39.12ZM81.4111 39.12C80.4671 39.12 79.6591 38.888 78.9871 38.424C78.3311 37.944 77.8351 37.32 77.4991 36.552C77.1631 35.784 76.9951 34.96 76.9951 34.08C76.9951 32.864 77.2191 31.784 77.6671 30.84C78.1311 29.88 78.7551 29.136 79.5391 28.608C80.3231 28.064 81.2031 27.792 82.1791 27.792C83.1231 27.792 83.9311 28.032 84.6031 28.512C85.2751 28.976 85.7791 29.592 86.1151 30.36C86.4511 31.128 86.6191 31.952 86.6191 32.832C86.6191 34.048 86.3871 35.136 85.9231 36.096C85.4591 37.04 84.8271 37.784 84.0271 38.328C83.2431 38.856 82.3711 39.12 81.4111 39.12ZM81.6751 36.528C82.2191 36.528 82.6751 36.232 83.0431 35.64C83.4271 35.048 83.6191 34.184 83.6191 33.048C83.6191 32.168 83.4591 31.504 83.1391 31.056C82.8191 30.608 82.4351 30.384 81.9871 30.384C81.4111 30.384 80.9311 30.68 80.5471 31.272C80.1791 31.848 79.9951 32.712 79.9951 33.864C79.9951 34.776 80.1551 35.448 80.4751 35.88C80.7951 36.312 81.1951 36.528 81.6751 36.528Z" fill="white"/>
</svg>
